<svg width="182.590625px" height="124.39999999999999px" xmlns="http://www.w3.org/2000/svg" viewBox="158.7046875 12.800000000000004 182.590625 124.39999999999999" style="background:#051103" preserveAspectRatio="xMidYMid"><defs><linearGradient id="editing-glowing-gradient" x1="0.8146601955249186" x2="0.18533980447508142" y1="0.8885729807284856" y2="0.11142701927151444"><stop offset="0" stop-color="#67ff43"></stop><stop offset="1" stop-color="#90ffff"></stop></linearGradient><filter id="editing-glowing" x="-100%" y="-100%" width="300%" height="300%"><feGaussianBlur in="SourceGraphic" result="blur" stdDeviation="10"></feGaussianBlur><feMerge><feMergeNode in="blur"></feMergeNode><feMergeNode in="SourceGraphic"></feMergeNode></feMerge></filter></defs><g filter="url(#editing-glowing)"><g transform="translate(190.92141795158386, 97.91000366210938)"><path d="M32.70 0L32.70 0Q32 0 31.81-0.70L31.81-0.70L29.25-8.51L29.25-8.51Q29.12-8.77 28.93-8.77L28.93-8.77L9.86-8.77L9.86-8.77Q9.66-8.77 9.54-8.51L9.54-8.51L7.04-0.70L7.04-0.70Q6.85 0 6.14 0L6.14 0L3.07 0L3.07 0Q2.62 0 2.43-0.26L2.43-0.26L2.43-0.26Q2.24-0.51 2.37-0.96L2.37-0.96L16.45-44.10L16.45-44.10Q16.64-44.80 17.34-44.80L17.34-44.80L21.44-44.80L21.44-44.80Q22.14-44.80 22.34-44.10L22.34-44.10L36.48-0.96L36.48-0.96Q36.54-0.83 36.54-0.64L36.54-0.64L36.54-0.64Q36.54-0.38 36.32-0.19L36.32-0.19L36.32-0.19Q36.10 0 35.78 0L35.78 0L32.70 0ZM10.94-12.86L10.94-12.86Q10.88-12.48 11.20-12.48L11.20-12.48L27.65-12.48L27.65-12.48Q28.03-12.48 27.90-12.86L27.90-12.86L19.58-39.04L19.58-39.04Q19.52-39.30 19.39-39.30L19.39-39.30L19.39-39.30Q19.26-39.30 19.20-39.04L19.20-39.04L10.94-12.86ZM57.92 0.51L57.92 0.51Q53.25 0.51 49.76-0.96L49.76-0.96L49.76-0.96Q46.27-2.43 44.38-5.15L44.38-5.15L44.38-5.15Q42.50-7.87 42.50-11.46L42.50-11.46L42.50-13.25L42.50-13.25Q42.50-14.08 43.33-14.08L43.33-14.08L46.08-14.08L46.08-14.08Q46.91-14.08 46.91-13.25L46.91-13.25L46.91-11.71L46.91-11.71Q46.91-8.06 49.98-5.76L49.98-5.76L49.98-5.76Q53.06-3.46 58.24-3.46L58.24-3.46L58.24-3.46Q63.17-3.46 65.73-5.54L65.73-5.54L65.73-5.54Q68.29-7.62 68.29-11.07L68.29-11.07L68.29-11.07Q68.29-13.31 67.10-14.91L67.10-14.91L67.10-14.91Q65.92-16.51 63.49-17.92L63.49-17.92L63.49-17.92Q61.06-19.33 56.51-21.18L56.51-21.18L56.51-21.18Q51.71-23.10 49.06-24.54L49.06-24.54L49.06-24.54Q46.40-25.98 44.77-28.26L44.77-28.26L44.77-28.26Q43.14-30.53 43.14-33.98L43.14-33.98L43.14-33.98Q43.14-39.36 46.88-42.34L46.88-42.34L46.88-42.34Q50.62-45.31 57.22-45.31L57.22-45.31L57.22-45.31Q64.26-45.31 68.35-41.98L68.35-41.98L68.35-41.98Q72.45-38.66 72.45-33.15L72.45-33.15L72.45-31.94L72.45-31.94Q72.45-31.10 71.62-31.10L71.62-31.10L68.80-31.10L68.80-31.10Q67.97-31.10 67.97-31.94L67.97-31.94L67.97-32.90L67.97-32.90Q67.97-36.61 65.09-38.98L65.09-38.98L65.09-38.98Q62.21-41.34 56.96-41.34L56.96-41.34L56.96-41.34Q52.42-41.34 50.02-39.49L50.02-39.49L50.02-39.49Q47.62-37.63 47.62-34.11L47.62-34.11L47.62-34.11Q47.62-31.81 48.80-30.30L48.80-30.30L48.80-30.30Q49.98-28.80 52.19-27.68L52.19-27.68L52.19-27.68Q54.40-26.56 58.94-24.77L58.94-24.77L58.94-24.77Q63.62-22.85 66.50-21.18L66.50-21.18L66.50-21.18Q69.38-19.52 71.10-17.12L71.10-17.12L71.10-17.12Q72.83-14.72 72.83-11.26L72.83-11.26L72.83-11.26Q72.83-5.95 68.90-2.72L68.90-2.72L68.90-2.72Q64.96 0.51 57.92 0.51L57.92 0.51ZM83.20 0L83.20 0Q82.37 0 82.37-0.83L82.37-0.83L82.37-43.97L82.37-43.97Q82.37-44.80 83.20-44.80L83.20-44.80L86.21-44.80L86.21-44.80Q86.78-44.80 87.17-44.22L87.17-44.22L98.88-25.73L98.88-25.73Q99.07-25.34 99.26-25.73L99.26-25.73L111.04-44.22L111.04-44.22Q111.42-44.80 112-44.80L112-44.80L115.01-44.80L115.01-44.80Q115.84-44.80 115.84-43.97L115.84-43.97L115.84-0.83L115.84-0.83Q115.84 0 115.01 0L115.01 0L112.13 0L112.13 0Q111.30 0 111.30-0.83L111.30-0.83L111.30-36.16L111.30-36.16Q111.30-36.42 111.17-36.42L111.17-36.42L111.17-36.42Q111.04-36.42 110.91-36.22L110.91-36.22L100.80-20.22L100.80-20.22Q100.42-19.65 99.84-19.65L99.84-19.65L98.37-19.65L98.37-19.65Q97.79-19.65 97.41-20.22L97.41-20.22L87.30-36.22L87.30-36.22Q87.17-36.42 87.04-36.42L87.04-36.42L87.04-36.42Q86.91-36.42 86.91-36.16L86.91-36.16L86.91-0.83L86.91-0.83Q86.91 0 86.08 0L86.08 0L83.20 0Z" fill="url(#editing-glowing-gradient)"></path></g></g><style>text {
  font-size: 64px;
  font-family: Arial Black;
  dominant-baseline: central;
  text-anchor: middle;
}</style></svg>