<svg width="156.125px" height="132.8px" xmlns="http://www.w3.org/2000/svg" viewBox="171.9375 8.599999999999994 156.125 132.8" style="background:#051103" preserveAspectRatio="xMidYMid"><defs><linearGradient id="editing-glowing-gradient" x1="0.8146601955249186" x2="0.18533980447508142" y1="0.8885729807284856" y2="0.11142701927151444"><stop offset="0" stop-color="#67ff43"></stop><stop offset="1" stop-color="#90ffff"></stop></linearGradient><filter id="editing-glowing" x="-100%" y="-100%" width="300%" height="300%"><feGaussianBlur in="SourceGraphic" result="blur" stdDeviation="10"></feGaussianBlur><feMerge><feMergeNode in="blur"></feMergeNode><feMergeNode in="SourceGraphic"></feMergeNode></feMerge></filter></defs><g filter="url(#editing-glowing)"><g transform="translate(201.42501068115234, 96.92000007629395)"><path d="M11.07-15.23L0.90-29.18L7.17-29.18L14.53-19.07L21.63-29.18L27.78-29.18L17.47-14.98L28.48 0L22.21 0L14.02-11.20L6.14 0L0 0L11.07-15.23ZM53.70-32.64L53.70-32.64L53.70-32.64Q53.70-35.46 51.87-37.09L51.87-37.09L51.87-37.09Q50.05-38.72 46.69-38.72L46.69-38.72L46.69-38.72Q43.33-38.72 41.47-36.96L41.47-36.96L41.47-36.96Q39.62-35.20 39.62-32.45L39.62-32.45L39.62-32.45Q39.62-29.70 41.38-28.06L41.38-28.06L41.38-28.06Q43.14-26.43 48.06-24.13L48.06-24.13L48.06-24.13Q53.70-27.78 53.70-32.64ZM38.34-10.88L38.34-10.88L38.34-10.88Q38.34-7.36 40.67-5.41L40.67-5.41L40.67-5.41Q43.01-3.46 46.72-3.46L46.72-3.46L46.72-3.46Q50.43-3.46 52.67-5.41L52.67-5.41L52.67-5.41Q54.91-7.36 54.91-10.62L54.91-10.62L54.91-10.62Q54.91-13.89 52.99-15.68L52.99-15.68L52.99-15.68Q51.07-17.47 45.31-20.16L45.31-20.16L45.31-20.16Q38.34-16.51 38.34-10.88ZM34.11-32.19L34.11-32.19L34.11-32.19Q34.11-36.93 37.60-40L37.60-40L37.60-40Q41.09-43.07 46.75-43.07L46.75-43.07L46.75-43.07Q52.42-43.07 55.81-40.10L55.81-40.10L55.81-40.10Q59.20-37.12 59.20-32.51L59.20-32.51L59.20-32.51Q59.20-26.37 51.90-22.21L51.90-22.21L51.90-22.21Q56.45-20.03 58.56-17.54L58.56-17.54L58.56-17.54Q60.67-15.04 60.67-10.40L60.67-10.40L60.67-10.40Q60.67-5.76 56.83-2.50L56.83-2.50L56.83-2.50Q52.99 0.77 46.50 0.77L46.50 0.77L46.50 0.77Q40 0.77 36.29-2.56L36.29-2.56L36.29-2.56Q32.58-5.89 32.58-10.88L32.58-10.88L32.58-10.88Q32.58-17.66 40.90-22.27L40.90-22.27L40.90-22.27Q37.57-24 35.84-26.27L35.84-26.27L35.84-26.27Q34.11-28.54 34.11-32.19ZM86.14-38.27L86.14-38.27L86.14-38.27Q81.09-38.27 78.05-34.34L78.05-34.34L78.05-34.34Q75.01-30.40 74.37-22.98L74.37-22.98L74.37-22.98Q79.74-25.22 84.51-25.22L84.51-25.22L84.51-25.22Q89.28-25.22 93.22-22.11L93.22-22.11L93.22-22.11Q97.15-19.01 97.15-13.57L97.15-13.57L97.15-13.57Q97.15-7.04 93.25-3.14L93.25-3.14L93.25-3.14Q89.34 0.77 83.10 0.77L83.10 0.77L83.10 0.77Q76.86 0.77 72.74-4.06L72.74-4.06L72.74-4.06Q68.61-8.90 68.61-19.46L68.61-19.46L68.61-19.46Q68.61-30.02 73.25-36.54L73.25-36.54L73.25-36.54Q77.89-43.07 86.14-43.07L86.14-43.07L86.14-43.07Q90.69-43.07 95.68-41.09L95.68-41.09L93.31-36.61L93.31-36.61Q89.28-38.27 86.14-38.27ZM82.72-3.58L82.72-3.58L82.72-3.58Q86.53-3.58 88.96-6.05L88.96-6.05L88.96-6.05Q91.39-8.51 91.39-12.48L91.39-12.48L91.39-12.48Q91.39-16.45 89.15-18.66L89.15-18.66L89.15-18.66Q86.91-20.86 83.58-20.86L83.58-20.86L83.58-20.86Q78.66-20.86 74.30-18.24L74.30-18.24L74.30-18.24Q74.37-11.52 76.64-7.55L76.64-7.55L76.64-7.55Q78.91-3.58 82.72-3.58Z" fill="url(#editing-glowing-gradient)"></path></g></g><style>text {
  font-size: 64px;
  font-family: Arial Black;
  dominant-baseline: central;
  text-anchor: middle;
}</style></svg>