<svg width="239.3375px" height="161.6px" xmlns="http://www.w3.org/2000/svg" viewBox="130.33125 -5.799999999999997 239.3375 161.6" style="background: rgba(0, 0, 0, 0);" preserveAspectRatio="xMidYMid"><defs><filter id="editing-hole" x="-100%" y="-100%" width="300%" height="300%"><feFlood flood-color="#000000" result="black"></feFlood><feMorphology operator="dilate" radius="2" in="SourceGraphic" result="erode"></feMorphology><feGaussianBlur in="erode" stdDeviation="4" result="blur"></feGaussianBlur><feOffset in="blur" dx="2" dy="2" result="offset"></feOffset><feComposite operator="atop" in="offset" in2="black" result="merge"></feComposite><feComposite operator="in" in="merge" in2="SourceGraphic" result="inner-shadow"></feComposite></filter></defs><g filter="url(#editing-hole)"><g transform="translate(169.80001193284988, 97)"><path d="M16.08 0L22.72 0L38.08-44L32.32-44L19.60-5.52L7.04-44L0.72-44L16.08 0ZM73.92-24.56L49.44-24.56L49.44-44L44.16-44L44.16 0L49.44 0L49.44-19.76L73.92-19.76L73.92 0L79.20 0L79.20-44L73.92-44L73.92-24.56ZM105.52 0L105.52 0Q112.16 0 116.68-2.64L116.68-2.64L116.68-2.64Q121.20-5.28 123.68-10.16L123.68-10.16L123.68-10.16Q126.24-14.96 126.24-22L126.24-22L126.24-22Q126.24-28.64 123.68-33.92L123.68-33.92L123.68-33.92Q121.20-38.64 116.64-41.32L116.64-41.32L116.64-41.32Q112.08-44 105.52-44L105.52-44L90.00-44L90.00 0L105.52 0ZM95.28-39.44L105.12-39.44L105.12-39.44Q110.40-39.44 113.84-37.04L113.84-37.04L113.84-37.04Q116.48-35.20 118.56-31.12L118.56-31.12L118.56-31.12Q120.40-27.04 120.40-22L120.40-22L120.40-22Q120.40-16 118.80-12.72L118.80-12.72L118.80-12.72Q116.96-8.88 113.72-6.76L113.72-6.76L113.72-6.76Q110.48-4.64 105.12-4.64L105.12-4.64L95.28-4.64L95.28-39.44ZM134.64 0L159.68 0L159.68-4.64L139.92-4.64L139.92-44L134.64-44L134.64 0Z" fill="#000000"></path></g></g><style>text {
  font-size: 64px;
  font-family: Arial Black;
  dominant-baseline: central;
  text-anchor: middle;
}</style></svg>