<svg width="345.58437499999997px" height="230px" xmlns="http://www.w3.org/2000/svg" viewBox="77.20781250000002 -40 345.58437499999997 230" style="background: rgba(0, 0, 0, 0);" preserveAspectRatio="xMidYMid"><defs><filter id="editing-hole" x="-100%" y="-100%" width="300%" height="300%"><feFlood flood-color="#000000" result="black"></feFlood><feMorphology operator="dilate" radius="2" in="SourceGraphic" result="erode"></feMorphology><feGaussianBlur in="erode" stdDeviation="4" result="blur"></feGaussianBlur><feOffset in="blur" dx="2" dy="2" result="offset"></feOffset><feComposite operator="atop" in="offset" in2="black" result="merge"></feComposite><feComposite operator="in" in="merge" in2="SourceGraphic" result="inner-shadow"></feComposite></filter></defs><g filter="url(#editing-hole)"><g transform="translate(130.94999659061432, 107.65499567985535)"><path d="M23.87 0L33.73 0L56.53-65.31L47.98-65.31L29.09-8.19L10.45-65.31L1.07-65.31L23.87 0ZM109.73-36.46L73.39-36.46L73.39-65.31L65.55-65.31L65.55 0L73.39 0L73.39-29.33L109.73-29.33L109.73 0L117.56 0L117.56-65.31L109.73-65.31L109.73-36.46ZM156.63 0L156.63 0Q166.49 0 173.20-3.92L173.20-3.92L173.20-3.92Q179.91-7.84 183.59-15.08L183.59-15.08L183.59-15.08Q187.39-22.21 187.39-32.66L187.39-32.66L187.39-32.66Q187.39-42.51 183.59-50.35L183.59-50.35L183.59-50.35Q179.91-57.36 173.14-61.33L173.14-61.33L173.14-61.33Q166.37-65.31 156.63-65.31L156.63-65.31L133.59-65.31L133.59 0L156.63 0ZM141.43-58.54L156.04-58.54L156.04-58.54Q163.88-58.54 168.98-54.98L168.98-54.98L168.98-54.98Q172.90-52.25 175.99-46.19L175.99-46.19L175.99-46.19Q178.72-40.14 178.72-32.66L178.72-32.66L178.72-32.66Q178.72-23.75 176.34-18.88L176.34-18.88L176.34-18.88Q173.61-13.18 168.80-10.03L168.80-10.03L168.80-10.03Q163.99-6.89 156.04-6.89L156.04-6.89L141.43-6.89L141.43-58.54ZM199.86 0L237.03 0L237.03-6.89L207.69-6.89L207.69-65.31L199.86-65.31L199.86 0Z" fill="#000000"></path></g></g><style>text {
  font-size: 64px;
  font-family: Arial Black;
  dominant-baseline: central;
  text-anchor: middle;
}</style></svg>