<svg width="479.9374267578125px" height="204.79999999999998px" xmlns="http://www.w3.org/2000/svg" viewBox="10.031286621093756 -27.39999999999999 479.9374267578125 204.79999999999998" style="background: rgba(0, 0, 0, 0);" preserveAspectRatio="xMidYMid"><defs><filter id="editing-hole" x="-100%" y="-100%" width="300%" height="300%"><feFlood flood-color="#000" result="black"></feFlood><feMorphology operator="dilate" radius="2" in="SourceGraphic" result="erode"></feMorphology><feGaussianBlur in="erode" stdDeviation="4" result="blur"></feGaussianBlur><feOffset in="blur" dx="2" dy="2" result="offset"></feOffset><feComposite operator="atop" in="offset" in2="black" result="merge"></feComposite><feComposite operator="in" in="merge" in2="SourceGraphic" result="inner-shadow"></feComposite></filter></defs><g filter="url(#editing-hole)"><g transform="translate(81.76497039198875, 118.6899995803833)"><path d="M71.68-87.38L82.50-87.38L47.12 0L35.77 0L0.40-87.38L11.22-87.38L41.45-11.22L71.68-87.38ZM154.31-87.38L164.21-87.38L164.21 0L154.31 0L154.31-38.94L103.49-38.94L103.49 0L93.59 0L93.59-87.38L103.49-87.38L103.49-48.58L154.31-48.58L154.31-87.38ZM185.59-87.38L222.42-87.38L222.42-87.38Q230.21-87.38 237.47-84.41L237.47-84.41L237.47-84.41Q244.73-81.44 250.27-75.77L250.27-75.77L250.27-75.77Q262.55-63.23 262.55-43.69L262.55-43.69L262.55-43.69Q262.55-24.16 250.27-11.62L250.27-11.62L250.27-11.62Q244.73-5.94 237.47-2.97L237.47-2.97L237.47-2.97Q230.21 0 222.42 0L222.42 0L185.59 0L185.59-87.38ZM195.49-9.37L222.02-9.37L222.02-9.37Q235.75-9.37 244.33-19.54L244.33-19.54L244.33-19.54Q252.65-29.30 252.65-43.69L252.65-43.69L252.65-43.69Q252.65-58.08 244.33-67.85L244.33-67.85L244.33-67.85Q235.75-78.01 222.02-78.01L222.02-78.01L195.49-78.01L195.49-9.37ZM278.52-87.38L288.42-87.38L288.42-9.50L336.07-9.50L336.07 0L278.52 0L278.52-87.38Z" fill="#ccc"></path></g></g><style>text {
  font-size: 64px;
  font-family: Arial Black;
  dominant-baseline: central;
  text-anchor: middle;
}</style></svg>